<svg xmlns="http://www.w3.org/2000/svg" viewBox="0 0 128 128" width="128" height="128">
  <rect width="128" height="128" fill="#f5f5f5"/>
  <!-- T-shirt silhouette -->
  <path fill="#333" d="M64 28c-4 0-7 2-9 5l-8-4c2-4 6-7 11-7h12c5 0 9 3 11 7l-8 4c-2-3-5-5-9-5z"/>
  <path fill="#333" d="M38 32v36c0 4 3 7 7 7h38c4 0 7-3 7-7V32h-4v34H42V32h-4z"/>
  <!-- Music note -->
  <circle fill="#333" cx="88" cy="88" r="12"/>
  <rect fill="#333" x="80" y="50" width="6" height="46"/>
  <path fill="#333" d="M80 50v-20l24 8v20l-24-8z"/>
</svg>
