<?xml version="1.0" standalone="no"?>
<!DOCTYPE svg PUBLIC "-//W3C//DTD SVG 20010904//EN"
 "http://www.w3.org/TR/2001/REC-SVG-20010904/DTD/svg10.dtd">
<svg version="1.0" xmlns="http://www.w3.org/2000/svg"
 width="1024.000000pt" height="1024.000000pt" viewBox="0 0 1024.000000 1024.000000"
 preserveAspectRatio="xMidYMid meet">

<g transform="translate(0.000000,1024.000000) scale(0.100000,-0.100000)"
fill="#000000" stroke="none">
<path d="M0 5120 l0 -5120 5120 0 5120 0 0 5120 0 5120 -5120 0 -5120 0 0
-5120z m8480 2635 l0 -885 -1125 0 -1125 0 -2 -1902 -3 -1903 -22 -80 c-38
-136 -97 -239 -188 -331 -44 -45 -91 -87 -105 -94 -14 -7 5 19 46 61 144 150
194 261 202 447 7 162 -5 203 -124 442 -135 269 -156 342 -158 520 -1 143 18
240 65 332 l20 40 -23 -7 c-94 -29 -264 -148 -335 -233 -97 -119 -137 -244
-148 -462 -9 -176 -28 -270 -76 -369 l-41 -83 -50 48 c-91 90 -172 245 -220
422 -16 61 -21 108 -21 222 -1 166 14 242 90 465 73 214 93 311 100 475 9 219
-24 351 -123 502 -112 168 -372 348 -557 385 l-32 6 34 -38 c46 -52 97 -163
117 -252 21 -95 15 -316 -11 -413 -45 -166 -116 -296 -314 -573 -176 -247
-241 -354 -288 -478 -21 -54 -41 -99 -45 -99 -5 0 -8 664 -8 1475 l0 1475
-1120 0 -1120 0 0 885 0 885 3355 0 3355 0 0 -885z m-4744 -3752 c-22 -43 -55
-149 -76 -243 -96 -433 -5 -869 230 -1101 116 -115 254 -163 354 -125 181 69
261 367 191 711 -13 65 -22 121 -20 123 10 11 176 -121 250 -199 60 -64 92
-108 123 -170 65 -131 77 -190 76 -364 0 -182 -11 -229 -95 -407 -124 -264
-117 -411 26 -575 25 -28 45 -54 45 -57 0 -3 -282 -6 -626 -6 -592 0 -626 1
-619 18 33 80 31 187 -6 303 -13 40 -71 167 -129 283 -164 325 -205 471 -205
726 0 110 5 180 18 240 63 299 195 568 387 788 73 83 102 104 76 55z m3146
-590 c-100 -118 -137 -251 -129 -466 4 -131 8 -157 57 -342 49 -187 53 -208
53 -320 0 -102 -4 -134 -27 -210 -34 -112 -118 -289 -190 -400 l-56 -85 -870
0 -870 0 0 30 c0 52 40 152 86 216 50 72 132 148 259 244 85 64 265 184 265
177 0 -2 -20 -39 -45 -82 -59 -103 -85 -184 -85 -261 0 -52 4 -67 25 -93 38
-45 84 -56 215 -55 92 1 132 7 203 28 254 76 445 240 556 478 53 111 79 220
96 396 29 296 43 359 110 478 41 73 125 168 193 218 51 37 184 108 190 101 2
-2 -14 -25 -36 -52z"/>
</g>
</svg>
